<svg class="svg-icon" style="width: 1em; height: 1em;vertical-align: middle;fill: currentColor;overflow: hidden;" viewBox="0 0 1024 1024" version="1.1" xmlns="http://www.w3.org/2000/svg"><path d="M798.208 365.056c-5.12-9.728-15.36-15.36-26.624-15.36h-189.952l179.712-280.576c8.192-12.8 4.096-29.696-10.24-37.376-4.608-2.56-9.728-4.096-15.36-4.096h-281.6c-11.776 0-23.04 6.656-27.136 16.896L215.04 535.04c-6.144 13.824 1.536 29.696 16.384 35.328 3.584 1.536 7.168 2.048 10.752 2.048h134.144l-161.792 399.36c-5.632 14.336 2.048 29.696 17.408 35.328 11.776 4.096 25.088 1.024 33.28-8.192L794.624 393.728c7.168-8.192 8.192-19.456 3.584-28.672z m-465.92 465.92l113.664-281.6c5.632-14.336-2.048-29.696-17.408-35.328-3.072-1.024-6.656-1.536-10.24-1.536h-122.88L479.232 87.04h200.192L499.2 367.616c-8.192 12.8-4.096 29.696 10.24 37.376 4.608 2.56 9.728 4.096 15.36 4.096h179.712l-372.224 421.888z" fill="" /></svg>